#!OML:ASF F:\VICON\USERDATA\INSTALL\Justin_Nancy\Justin_Nancy.ASF
:FULLY-SPECIFIED
:DEGREES
98
root -5.6901 15.6491 4.88984 -22.8693 50.8568 -26.4081
lowerback 15.5593 3.57473 6.91441
upperback 4.40452 6.52795 8.25621
thorax -4.2291 3.31861 3.63211
lowerneck -11.8692 -2.31313 -5.5464
upperneck 15.4459 -2.87207 4.84923
head 6.81746 -1.26692 2.2123
rclavicle -1.33981e-013 -2.14687e-014
rhumerus -40.2834 22.5131 -87.9487
rradius 99.9039
rwrist -10.8762
rhand -13.1502 27.7425
rfingers 7.12502
rthumb 12.9484 -1.83572
lclavicle -1.33981e-013 -2.14687e-014
lhumerus -67.8091 -8.98205 100.867
lradius 102.352
lwrist 26.0301
lhand -16.3884 4.9238
lfingers 7.12502
lthumb 9.82546 34.6746
rfemur 9.62031 -7.48732 13.4859
rtibia 46.9146
rfoot -0.412956 10.0553
rtoes -29.882
lfemur -34.19 19.914 -39.627
ltibia 48.6389
lfoot -2.88261 4.26242
ltoes 27.9346
99
root -5.45177 15.6518 5.19176 -22.5182 51.6946 -26.5495
lowerback 14.4888 3.28756 6.37135
upperback 4.09538 5.93386 7.93497
thorax -3.98395 3.02423 3.75218
lowerneck -11.448 -2.04475 -5.23535
upperneck 15.5247 -2.60234 4.9704
head 6.75091 -1.11188 2.22898
rclavicle -1.38354e-013 -7.95139e-016
rhumerus -41.1282 22.8318 -88.2171
rradius 99.4345
rwrist -9.97522
rhand -12.6193 27.9004
rfingers 7.12502
rthumb 13.4602 -1.64471
lclavicle -1.38354e-013 -7.95139e-016
lhumerus -67.6841 -9.37615 100.837
lradius 103.258
lwrist 26.7437
lhand -23.776 6.80721
lfingers 7.12502
lthumb 2.69368 36.7699
rfemur 8.97356 -6.5875 13.4735
rtibia 48.5977
rfoot -2.17898 8.21038
rtoes -32.9114
lfemur -32.9511 20.4055 -39.7539
ltibia 49.0129
lfoot -5.38921 4.59522
ltoes 25.8809
100
root -5.22163 15.6555 5.48223 -22.7747 52.3053 -27.4402
lowerback 13.7546 3.00344 6.32832
upperback 3.72479 5.48232 7.7494
thorax -3.95057 2.79406 3.68647
lowerneck -11.0607 -1.8692 -5.10339
upperneck 15.3949 -2.42048 5.10038
head 6.63128 -1.01034 2.26699
rclavicle -1.07841e-013 -7.59357e-014
rhumerus -42.2599 22.6819 -88.6182
rradius 98.8461
rwrist -8.93157
rhand -12.2042 28.1968
rfingers 7.12502
rthumb 13.8602 -1.32135
lclavicle -1.07841e-013 -7.59357e-014
lhumerus -67.1463 -10.0312 100.879
lradius 104.09
lwrist 26.8534
lhand -27.8054 8.69627
lfingers 7.12502
lthumb -1.19796 38.6727
rfemur 7.94078 -5.55289 14.007
rtibia 50.4692
rfoot -2.62108 5.72573
rtoes -34.5032
lfemur -31.9162 20.5727 -39.0743
ltibia 49.7429
lfoot -7.5536 4.11078
ltoes 25.0983
101
root -5.01046 15.6554 5.78219 -24.2493 52.7097 -29.4954
lowerback 13.5705 2.601 6.84527
upperback 3.34956 5.03959 7.76872
thorax -4.19544 2.56274 3.49566
lowerneck -10.8329 -1.79778 -5.35133
upperneck 15.3004 -2.35127 5.49184
head 6.56445 -0.962141 2.44117
rclavicle 9.69075e-014 4.77083e-015
rhumerus -43.5808 22.2544 -89.0615
rradius 98.1297
rwrist -7.94398
rhand -12.0355 28.652
rfingers 7.12502
rthumb 14.0228 -0.855009
lclavicle 9.69075e-014 4.77083e-015
lhumerus -66.1394 -10.6208 100.84
lradius 104.634
lwrist 26.3095
lhand -27.1305 9.07386
lfingers 7.12502
lthumb -0.546143 39.0529
rfemur 6.96586 -4.57836 15.4567
rtibia 52.4302
rfoot -2.18215 1.86101
rtoes -31.5145
lfemur -30.8225 20.2261 -37.1727
ltibia 50.491
lfoot -9.76922 3.04384
ltoes 26.3625
102
root -4.79345 15.6512 6.07101 -24.2431 53.608 -30.0622
lowerback 13.0138 2.18413 6.3461
upperback 2.98653 4.36148 7.53493
thorax -4.28048 2.22073 3.65244
lowerneck -10.9214 -1.67923 -5.54889
upperneck 15.4986 -2.21011 5.81582
head 6.64005 -0.876451 2.59343
rclavicle -3.69739e-014 -4.57205e-015
rhumerus -44.5557 22.0472 -89.0907
rradius 97.1948
rwrist -7.61501
rhand -11.7665 28.9231
rfingers 7.12502
rthumb 14.282 -0.565773
lclavicle -3.69739e-014 -4.57205e-015
lhumerus -64.6443 -11.0297 100.807
lradius 105.053
lwrist 25.5932
lhand -25.3667 8.14674
lfingers 7.12502
lthumb 1.1574 38.1233
rfemur 5.58928 -4.13608 15.5013
rtibia 54.4476
rfoot -2.20068 -1.96511
rtoes -28.8841
lfemur -29.9054 19.5222 -36.4762
ltibia 50.9569
lfoot -12.0542 2.96099
ltoes 25.9005
103
root -4.56859 15.6534 6.33875 -23.3942 54.8153 -29.737
lowerback 12.2934 1.77103 5.29735
upperback 2.71616 3.58737 7.24225
thorax -4.19454 1.83984 4.07151
lowerneck -11.1595 -1.52256 -5.7623
upperneck 15.7639 -1.98441 5.98987
head 6.75619 -0.761503 2.7087
rclavicle -4.62174e-015 1.18476e-013
rhumerus -45.2311 21.9708 -88.4088
rradius 96.2541
rwrist -7.75622
rhand -11.3134 28.9288
rfingers 7.12502
rthumb 14.7186 -0.52869
lclavicle -4.62174e-015 1.18476e-013
lhumerus -62.5831 -11.5389 100.869
lradius 105.403
lwrist 25.01
lhand -25.101 7.54473
lfingers 7.12502
lthumb 1.41407 37.5198
rfemur 3.86027 -3.76534 14.6349
rtibia 56.5105
rfoot -2.36295 -4.48778
rtoes -29.0397
lfemur -28.9415 18.8347 -36.6014
ltibia 51.1989
lfoot -13.9642 3.08491
ltoes 25.2208
104
root -4.34377 15.6812 6.62917 -24.2632 55.5387 -31.0443
lowerback 11.9691 1.41403 5.00883
upperback 2.55948 3.05522 7.23161
thorax -4.17545 1.57844 4.31327
lowerneck -11.3226 -1.44271 -5.74664
upperneck 15.8063 -1.88646 6.06895
head 6.79254 -0.704764 2.74127
rclavicle -2.63265e-014 -2.51463e-014
rhumerus -46.2102 21.1174 -87.9322
rradius 95.2579
rwrist -7.33238
rhand -11.3292 29.041
rfingers 7.12502
rthumb 14.7033 -0.417639
lclavicle -2.63265e-014 -2.51463e-014
lhumerus -60.0431 -12.3436 100.616
lradius 105.371
lwrist 23.9891
lhand -24.3696 7.12965
lfingers 7.12502
lthumb 2.12041 37.0989
rfemur 2.32186 -2.79817 15.2478
rtibia 58.5151
rfoot -2.7868 -7.02508
rtoes -26.699
lfemur -27.7098 18.5737 -35.3742
ltibia 51.4278
lfoot -15.5106 2.52512
ltoes 25.4858
